<?xml version="1.0" standalone="no"?>
<!DOCTYPE svg PUBLIC "-//W3C//DTD SVG 20010904//EN"
 "http://www.w3.org/TR/2001/REC-SVG-20010904/DTD/svg10.dtd">
<svg version="1.0" xmlns="http://www.w3.org/2000/svg"
 width="720.000000pt" height="720.000000pt" viewBox="0 0 720.000000 720.000000"
 preserveAspectRatio="xMidYMid meet">
<metadata>
Created by potrace 1.14, written by Peter Selinger 2001-2017
</metadata>
<g transform="translate(0.000000,720.000000) scale(0.100000,-0.100000)"
fill="#000000" stroke="none">
<path d="M1137 5288 l-1127 -1129 565 -565 565 -565 -565 -566 -565 -565 565
-565 564 -565 1130 1130 1130 1131 -565 565 -565 566 565 565 565 565 -548
547 c-301 302 -556 555 -567 564 -18 16 -69 -34 -1147 -1113z"/>
<path d="M3243 4723 l-562 -563 565 -566 564 -565 -560 -560 c-308 -309 -560
-565 -560 -570 0 -5 252 -262 560 -570 l560 -561 852 853 c469 469 1232 1233
1695 1696 l842 842 -565 565 -564 566 -565 -565 -565 -565 -553 552 c-304 304
-559 558 -567 564 -12 9 -121 -96 -577 -553z"/>
</g>
</svg>
